<svg width="112" height="112" viewBox="0 0 112 112" fill="none" xmlns="http://www.w3.org/2000/svg">
<path fill-rule="evenodd" clip-rule="evenodd" d="M41.8512 19.09L33.7957 16.9316C32.999 16.7181 32.5263 15.8993 32.7397 15.1026C32.9532 14.306 33.772 13.8332 34.5687 14.0467L42.624 16.2051C44.4073 12.2955 48.8032 10.1301 53.0918 11.2792L64.6314 14.3712C68.9199 15.5203 71.6441 19.5933 71.2339 23.8707L79.2851 26.028C80.0817 26.2415 80.5545 27.0603 80.341 27.857C80.1275 28.6536 79.3087 29.1264 78.512 28.9129L70.4608 26.7556C68.6772 30.6647 64.2816 32.8297 59.9933 31.6806L48.4537 28.5886C44.1656 27.4396 41.4414 23.3671 41.8512 19.09ZM52.3189 14.1647C49.1323 13.3108 45.8569 15.2019 45.0031 18.3884C44.1492 21.575 46.0403 24.8504 49.2268 25.7043L60.7664 28.7963C63.953 29.6501 67.2284 27.7591 68.0822 24.5725C68.9361 21.3859 67.045 18.1105 63.8585 17.2567L52.3189 14.1647Z" fill="#41515C"/>
<rect x="48.1327" y="15.3618" width="19.4133" height="7.46667" rx="3.73333" transform="rotate(15 48.1327 15.3618)" fill="#41515C"/>
<path d="M42.5861 68.1326C45.622 68.946 47.4237 72.0666 46.6102 75.1025L41.3703 94.658C40.5568 97.6939 37.4363 99.4956 34.4004 98.6821C31.3645 97.8686 29.5628 94.7481 30.3763 91.7122L35.6162 72.1566C36.4297 69.1207 39.5502 67.3191 42.5861 68.1326Z" fill="#41515C"/>
<path fill-rule="evenodd" clip-rule="evenodd" d="M50.658 85.741L51.3065 85.5414C51.6646 85.4312 51.9979 85.3284 52.309 85.2317C52.4836 86.2245 52.7258 87.1939 53.0307 88.1351C52.7602 88.2189 52.4786 88.3055 52.1852 88.3959L51.5366 88.5955C49.6242 89.1842 48.6679 89.4785 47.6809 89.4967C46.9828 89.5095 46.2949 89.3837 45.268 89.1257L46.0415 86.2388C46.9503 86.4659 47.295 86.5166 47.626 86.5105C48.0951 86.5019 48.5878 86.3782 50.658 85.741ZM64.811 61.6694C64.851 61.3716 64.8887 61.0776 64.924 60.7881C65.3944 56.9289 65.6314 52.233 65.744 47.8701C65.8417 44.0833 65.8905 42.1898 65.3453 40.3232C64.5375 37.5582 62.5569 34.9069 60.1345 33.348C58.4993 32.2957 56.5365 31.7698 52.6109 30.7179C48.6852 29.666 46.7224 29.1401 44.7801 29.2338C41.9028 29.3727 38.8619 30.6784 36.7799 32.6692C35.3744 34.013 34.4699 35.6772 32.6611 39.0056C30.5771 42.8402 28.4345 47.0255 26.9122 50.6029C24.7435 55.6997 22.5419 62.5991 20.994 67.7975C19.9436 71.3255 19.4183 73.0895 19.8413 74.8991C20.2642 76.7087 21.5563 78.0996 24.1405 80.8813L24.6023 81.3785L24.6023 81.3785C25.9643 82.8445 26.6452 83.5776 27.4909 84.0868C28.0892 84.447 28.7478 84.682 29.7663 84.972L30.5399 82.0851C29.6391 81.8274 29.3152 81.6989 29.0316 81.5282C28.6296 81.2861 28.2648 80.9327 26.7905 79.3457L26.3287 78.8486C24.9968 77.4149 24.1482 76.4963 23.5602 75.721C23.0152 75.0023 22.8343 74.582 22.7496 74.2193C22.5481 73.3574 22.7157 72.4811 23.8565 68.6498C25.4003 63.4651 27.5622 56.7034 29.6605 51.7723C31.1273 48.3252 33.2171 44.2372 35.2853 40.4317C37.1759 36.9529 37.8509 35.7773 38.8439 34.8279C40.4061 33.3342 42.7652 32.3212 44.9241 32.217C46.2908 32.1511 47.7254 32.5008 51.8378 33.6028C55.9503 34.7047 57.3676 35.1191 58.5182 35.8596C60.3358 37.0292 61.8723 39.0861 62.4784 41.1607C62.8637 42.4795 62.8604 43.8351 62.7583 47.7931C62.6466 52.1229 62.4125 56.7081 61.9593 60.4267C61.8403 61.403 61.6923 62.4338 61.5222 63.4987C62.5581 62.7981 63.6579 62.1848 64.811 61.6694Z" fill="#41515C"/>
<path d="M63.9999 79H82.4614L77.3935 72" stroke="#16AA51" stroke-width="2.4"/>
<path d="M83.9999 85H65.5383L70.6062 92" stroke="#16AA51" stroke-width="2.4"/>
<path fill-rule="evenodd" clip-rule="evenodd" d="M73.6418 61.2865C62.5035 61.2865 53.4741 70.3158 53.4741 81.4541C53.4741 92.5924 62.5035 101.622 73.6418 101.622C84.78 101.622 93.8094 92.5924 93.8094 81.4541C93.8094 70.3158 84.78 61.2865 73.6418 61.2865ZM50.4874 81.4541C50.4874 68.6664 60.854 58.2998 73.6418 58.2998C86.4295 58.2998 96.7961 68.6664 96.7961 81.4541C96.7961 94.2419 86.4295 104.608 73.6418 104.608C60.854 104.608 50.4874 94.2419 50.4874 81.4541Z" fill="#41515C"/>
</svg>
