<svg width="112" height="112" viewBox="0 0 112 112" fill="none" xmlns="http://www.w3.org/2000/svg">
<path d="M35.2191 58.1706H40.4587V70.3794C40.4587 73.2281 42.0017 73.8046 43.8839 71.6681L56.7201 57.0854C58.2971 55.3049 57.6358 53.8297 55.2449 53.8297H50.0053V41.6209C50.0053 38.7722 48.4622 38.1956 46.58 40.3322L33.7438 54.9149C32.1838 56.7123 32.8451 58.1706 35.2191 58.1706Z" fill="#41515C" stroke="#41515C" stroke-width="1.12" stroke-miterlimit="10" stroke-linecap="round" stroke-linejoin="round"/>
<path d="M38.7537 13.6783C37.4888 13.6783 36.8563 13.6783 36.4028 13.9833C36.2105 14.1126 36.0451 14.278 35.9158 14.4703C35.6108 14.9238 35.6108 15.5563 35.6108 16.8212C35.6108 17.4536 35.6108 17.7698 35.7633 17.9966C35.828 18.0927 35.9107 18.1754 36.0068 18.2401C36.2336 18.3926 36.5498 18.3926 37.1823 18.3926L53.847 18.3926C54.4794 18.3926 54.7956 18.3926 55.0224 18.2401C55.1185 18.1754 55.2012 18.0927 55.2659 17.9966C55.4184 17.7698 55.4184 17.4536 55.4184 16.8212C55.4184 15.5563 55.4184 14.9238 55.1134 14.4703C54.9841 14.278 54.8187 14.1126 54.6264 13.9833C54.1729 13.6783 53.5405 13.6783 52.2755 13.6783L38.7537 13.6783Z" fill="#41515C"/>
<path d="M17.6113 86.465C17.6113 91.0011 21.2886 94.6784 25.8247 94.6784H57.4084C56.9614 93.7054 56.5679 92.7083 56.2316 91.6917H25.8247C22.9381 91.6917 20.598 89.3517 20.598 86.465L20.598 28.225C20.598 25.3384 22.9381 22.9984 25.8247 22.9984L64.6513 22.9984C67.5379 22.9984 69.878 25.3384 69.878 28.225V61.3168L72.8157 60.1143C72.832 60.1076 72.8483 60.101 72.8647 60.0944V28.225C72.8647 23.6889 69.1874 20.0117 64.6513 20.0117L25.8247 20.0117C21.2886 20.0117 17.6113 23.689 17.6113 28.225V86.465Z" fill="#41515C"/>
<path d="M99.1064 83.1065C99.1064 94.4365 90.8812 105.048 79.6439 108.153C78.8793 108.361 78.0451 108.361 77.2805 108.153C66.0432 105.048 57.818 94.4365 57.818 83.1065V72.935C57.818 71.0351 59.2545 68.8803 61.0386 68.162L73.9441 62.8794C76.8403 61.6978 80.1072 61.6978 83.0034 62.8794L95.909 68.162C97.6699 68.8803 99.1296 71.0351 99.1296 72.935L99.1064 83.1065Z" stroke="#41515C" stroke-width="2.98667"/>
<path d="M67.9817 83.5854L75.0962 90.4697L88.9658 76.6001" stroke="#41515C" stroke-width="2.98667"/>
</svg>
