<svg width="112" height="112" viewBox="0 0 112 112" fill="none" xmlns="http://www.w3.org/2000/svg">
<path fill-rule="evenodd" clip-rule="evenodd" d="M41.8514 19.09L33.7959 16.9316C32.9993 16.7181 32.5265 15.8993 32.74 15.1026C32.9534 14.306 33.7723 13.8332 34.5689 14.0467L42.6242 16.2051C44.4075 12.2955 48.8034 10.1301 53.092 11.2792L64.6316 14.3712C68.9201 15.5203 71.6443 19.5933 71.2341 23.8707L79.2853 26.028C80.0819 26.2415 80.5547 27.0603 80.3412 27.857C80.1278 28.6536 79.3089 29.1264 78.5123 28.9129L70.461 26.7556C68.6774 30.6647 64.2819 32.8297 59.9936 31.6806L48.454 28.5886C44.1658 27.4396 41.4417 23.3671 41.8514 19.09ZM52.3189 14.1647C49.1323 13.3108 45.8569 15.2019 45.0031 18.3884C44.1492 21.575 46.0403 24.8504 49.2268 25.7043L60.7664 28.7963C63.953 29.6501 67.2284 27.7591 68.0822 24.5725C68.9361 21.3859 67.045 18.1105 63.8585 17.2567L52.3189 14.1647Z" fill="#41515C"/>
<rect x="48.1328" y="15.3628" width="19.4133" height="7.46667" rx="3.73333" transform="rotate(15 48.1328 15.3628)" fill="#41515C"/>
<path d="M42.5862 68.134C45.6222 68.9475 47.4238 72.068 46.6103 75.1039L41.3704 94.6595C40.557 97.6954 37.4364 99.4971 34.4005 98.6836C31.3646 97.8701 29.563 94.7496 30.3764 91.7137L35.6163 72.1581C36.4298 69.1222 39.5503 67.3205 42.5862 68.134Z" fill="#41515C"/>
<path fill-rule="evenodd" clip-rule="evenodd" d="M50.6582 85.7415L51.3067 85.5419C51.6648 85.4316 51.9981 85.3289 52.3092 85.2322C52.4838 86.2249 52.726 87.1943 53.0309 88.1356C52.7605 88.2193 52.4788 88.306 52.1853 88.3964L51.5368 88.596C49.6243 89.1847 48.668 89.479 47.681 89.4972C46.9829 89.51 46.295 89.3842 45.2681 89.1262L46.0416 86.2393C46.9504 86.4664 47.2951 86.5171 47.6261 86.511C48.0953 86.5024 48.5879 86.3787 50.6582 85.7415ZM64.8112 61.6694C64.8512 61.3717 64.8888 61.078 64.9241 60.7886C65.3945 56.9294 65.6316 52.2335 65.7441 47.8706C65.8418 44.0837 65.8907 42.1903 65.3454 40.3237C64.5376 37.5587 62.557 34.9074 60.1346 33.3485C58.4994 32.2962 56.5366 31.7702 52.611 30.7184C48.6854 29.6665 46.7226 29.1406 44.7802 29.2343C41.903 29.3731 38.8621 30.6789 36.78 32.6696C35.3745 34.0135 34.4701 35.6777 32.6612 39.0061C30.5772 42.8407 28.4346 47.026 26.9124 50.6034C24.7436 55.7002 22.542 62.5996 20.9942 67.7979C19.9437 71.3259 19.4185 73.0899 19.8414 74.8996C20.2643 76.7092 21.5564 78.1 24.1406 80.8818L24.6024 81.3789L24.6025 81.379C25.9644 82.845 26.6454 83.578 27.491 84.0873C28.0893 84.4475 28.748 84.6825 29.7664 84.9725L30.54 82.0856C29.6392 81.8279 29.3153 81.6994 29.0317 81.5287C28.6297 81.2866 28.2649 80.9332 26.7906 79.3462L26.3288 78.8491C24.9969 77.4154 24.1483 76.4968 23.5603 75.7215C23.0153 75.0028 22.8345 74.5825 22.7497 74.2198C22.5482 73.3579 22.7158 72.4816 23.8566 68.6503C25.4004 63.4655 27.5623 56.7038 29.6606 51.7728C31.1274 48.3257 33.2173 44.2377 35.2854 40.4322C37.176 36.9534 37.851 35.7778 38.844 34.8284C40.4062 33.3347 42.7653 32.3217 44.9242 32.2175C46.2909 32.1516 47.7255 32.5013 51.838 33.6033C55.9505 34.7052 57.3677 35.1196 58.5184 35.86C60.3359 37.0297 61.8725 39.0866 62.4785 41.1612C62.8638 42.4799 62.8606 43.8356 62.7584 47.7936C62.6467 52.1234 62.4126 56.7085 61.9594 60.4272C61.8404 61.4034 61.6925 62.4339 61.5224 63.4987C62.5583 62.7981 63.6581 62.1848 64.8112 61.6694Z" fill="#41515C"/>
<path fill-rule="evenodd" clip-rule="evenodd" d="M73.6419 61.2855C62.5036 61.2855 53.4742 70.3149 53.4742 81.4531C53.4742 92.5914 62.5036 101.621 73.6419 101.621C84.7802 101.621 93.8095 92.5914 93.8095 81.4531C93.8095 70.3149 84.7802 61.2855 73.6419 61.2855ZM50.4875 81.4531C50.4875 68.6654 60.8541 58.2988 73.6419 58.2988C86.4296 58.2988 96.7962 68.6654 96.7962 81.4531C96.7962 94.2409 86.4296 104.607 73.6419 104.607C60.8541 104.607 50.4875 94.2409 50.4875 81.4531Z" fill="#41515C"/>
<path d="M73.2307 70.5386V84.0001H82.923" stroke="#16AA51" stroke-width="4.30769"/>
</svg>
