<svg width="112" height="112" viewBox="0 0 112 112" fill="none" xmlns="http://www.w3.org/2000/svg">
<path d="M35.2187 58.1711H40.4583V70.3799C40.4583 73.2286 42.0014 73.8051 43.8836 71.6686L56.7198 57.0859C58.2967 55.3054 57.6354 53.8302 55.2445 53.8302H50.0049V41.6214C50.0049 38.7727 48.4619 38.1961 46.5797 40.3327L33.7435 54.9154C32.1835 56.7128 32.8448 58.1711 35.2187 58.1711Z" fill="#41515C" stroke="#41515C" stroke-width="1.12" stroke-miterlimit="10" stroke-linecap="round" stroke-linejoin="round"/>
<path d="M38.7537 13.6783C37.4888 13.6783 36.8563 13.6783 36.4028 13.9833C36.2105 14.1126 36.0451 14.278 35.9158 14.4703C35.6108 14.9238 35.6108 15.5563 35.6108 16.8212C35.6108 17.4536 35.6108 17.7698 35.7633 17.9966C35.828 18.0927 35.9107 18.1754 36.0068 18.2401C36.2336 18.3926 36.5498 18.3926 37.1823 18.3926L53.847 18.3926C54.4794 18.3926 54.7956 18.3926 55.0224 18.2401C55.1185 18.1754 55.2012 18.0927 55.2659 17.9966C55.4184 17.7698 55.4184 17.4536 55.4184 16.8212C55.4184 15.5563 55.4184 14.9238 55.1134 14.4703C54.9841 14.278 54.8187 14.1126 54.6264 13.9833C54.1729 13.6783 53.5405 13.6783 52.2755 13.6783L38.7537 13.6783Z" fill="#41515C"/>
<path d="M17.6117 86.4646C17.6117 91.0007 21.2889 94.6779 25.825 94.6779H55.7594C55.3561 93.712 55.0126 92.7149 54.7333 91.6912H25.825C22.9384 91.6912 20.5984 89.3512 20.5984 86.4646L20.5984 28.2246C20.5984 25.338 22.9384 22.9979 25.825 22.9979L64.6517 22.9979C67.5383 22.9979 69.8784 25.338 69.8784 28.2246V62.0956C70.8465 61.7335 71.8435 61.4305 72.865 61.191V28.2246C72.865 23.6885 69.1878 20.0112 64.6517 20.0112L25.825 20.0112C21.2889 20.0112 17.6117 23.6885 17.6117 28.2246V86.4646Z" fill="#41515C"/>
<path fill-rule="evenodd" clip-rule="evenodd" d="M100.174 85.188C100.174 97.1517 90.4775 106.849 78.5138 106.849C66.5501 106.849 56.8531 97.1517 56.8531 85.188C56.8531 73.2243 66.5501 63.5273 78.5138 63.5273C90.4775 63.5273 100.174 73.2243 100.174 85.188Z" stroke="#41515C" stroke-width="2.98667"/>
<path d="M86.5498 92.079L77.7217 86.8126V75.4624" stroke="#41515C" stroke-width="2.98667"/>
</svg>
