<svg width="42" height="42" viewBox="0 0 42 42" fill="none" xmlns="http://www.w3.org/2000/svg">
<path d="M32.2875 34.356L24.9375 26.985V14.658H26.2395V13.083H15.7605V14.658H17.0625V26.985L11.655 32.4135L9.72298 34.3455C8.88298 35.1855 8.64148 36.393 9.10348 37.4955C9.55498 38.598 10.584 39.2805 11.7705 39.2805H30.2505C31.437 39.2805 32.466 38.598 32.9175 37.4955C33.369 36.393 33.138 35.196 32.298 34.3455L32.2875 34.356ZM18.4065 27.867C18.5535 27.72 18.6375 27.5205 18.6375 27.3105V14.658H23.3625V27.3105C23.3625 27.5205 23.4465 27.72 23.5935 27.867L27.384 31.668C26.943 32.214 26.0925 33.075 24.864 33.3585C23.646 33.642 22.2915 33.2955 20.853 32.3295C18.8055 30.954 16.9785 30.6495 15.498 30.786L18.4065 27.867ZM31.4475 36.897C31.2375 37.401 30.786 37.7055 30.24 37.7055H11.76C11.214 37.7055 10.7625 37.401 10.5525 36.897C10.3425 36.393 10.4475 35.8575 10.836 35.469L12.7575 33.5475C12.9255 33.39 15.7605 30.8175 19.9815 33.642C21.3675 34.566 22.7115 35.0385 24.0135 35.0385C24.4335 35.0385 24.843 34.986 25.242 34.8915C26.8065 34.524 27.888 33.5265 28.5075 32.7915L31.1745 35.469C31.563 35.8575 31.668 36.393 31.458 36.897H31.4475Z" fill="#AED7CD"/>
<path d="M25.7446 9.81448C26.5717 9.81448 27.2446 9.14151 27.2446 8.31448C27.2446 7.48746 26.5717 6.81448 25.7446 6.81448C24.9176 6.81448 24.2446 7.48746 24.2446 8.31448C24.2446 9.14151 24.9176 9.81448 25.7446 9.81448Z" fill="#AED7CD"/>
<path d="M16.6431 7.65549C17.3314 7.65549 17.8931 7.09378 17.8931 6.40549C17.8931 5.7172 17.3314 5.15549 16.6431 5.15549C15.9548 5.15549 15.3931 5.7172 15.3931 6.40549C15.3931 7.09378 15.9548 7.65549 16.6431 7.65549Z" fill="#AED7CD"/>
<path d="M22.6431 3.65549C23.3314 3.65549 23.8931 3.09378 23.8931 2.40549C23.8931 1.7172 23.3314 1.15549 22.6431 1.15549C21.9548 1.15549 21.3931 1.7172 21.3931 2.40549C21.3931 3.09378 21.9548 3.65549 22.6431 3.65549Z" fill="#AED7CD"/>
</svg>
