<svg width="42" height="42" viewBox="0 0 42 42" fill="none" xmlns="http://www.w3.org/2000/svg">
<path d="M35.6323 26.8356V15.1642C36.5132 14.84 37.1494 14.002 37.1494 13.0049C37.1494 11.7325 36.1156 10.6988 34.8432 10.6988C34.2805 10.6988 33.7727 10.9067 33.369 11.2432L23.2575 5.40748C23.2819 5.27902 23.3003 5.14445 23.3003 5.00987C23.3003 3.73752 22.2665 2.70374 20.9941 2.70374C19.7218 2.70374 18.688 3.73752 18.688 5.00987C18.688 5.14445 18.7063 5.27902 18.7308 5.40748L8.61923 11.2432C8.22162 10.9067 7.70779 10.6988 7.14501 10.6988C5.87266 10.6988 4.83887 11.7325 4.83887 13.0049C4.83887 14.002 5.47505 14.84 6.35591 15.1642V26.8356C5.47505 27.1598 4.83887 27.9979 4.83887 28.9949C4.83887 30.2673 5.87266 31.3011 7.14501 31.3011C7.70779 31.3011 8.21551 31.0931 8.61923 30.7567L18.7308 36.5923C18.7063 36.7208 18.688 36.8554 18.688 36.99C18.688 38.2623 19.7218 39.2961 20.9941 39.2961C22.2665 39.2961 23.3003 38.2623 23.3003 36.99C23.3003 36.8554 23.2819 36.7208 23.2575 36.5923L33.369 30.7567C33.7666 31.0931 34.2805 31.3011 34.8432 31.3011C36.1156 31.3011 37.1494 30.2673 37.1494 28.9949C37.1494 27.9979 36.5132 27.1598 35.6323 26.8356ZM32.5371 28.9949C32.5371 29.1295 32.5554 29.2641 32.5799 29.3925L22.4683 35.2282C22.2665 35.057 22.034 34.9224 21.7832 34.8306V23.0858C22.6641 22.7616 23.3003 21.9236 23.3003 20.9265C23.3003 20.8103 23.2819 20.7063 23.2697 20.5962L33.369 14.7605C33.5709 14.9318 33.8033 15.0663 34.0541 15.1581V26.8295C33.1733 27.1537 32.5371 27.9917 32.5371 28.9888V28.9949ZM7.93412 26.8356V15.1642C8.18492 15.0725 8.41737 14.9379 8.61923 14.7666L18.7186 20.6023C18.7002 20.7124 18.688 20.8164 18.688 20.9326C18.688 21.9297 19.3242 22.7677 20.205 23.092V34.8367C19.9542 34.9285 19.7218 35.0631 19.5199 35.2344L9.40834 29.3987C9.43281 29.2702 9.45116 29.1356 9.45116 29.001C9.45116 28.004 8.81498 27.1659 7.93412 26.8417V26.8356ZM20.9941 7.31601C21.5569 7.31601 22.0646 7.10803 22.4683 6.77159L32.5799 12.6073C32.5554 12.7357 32.5371 12.8703 32.5371 13.0049C32.5371 13.1395 32.5554 13.274 32.5799 13.4025L22.5234 19.2076C22.1136 18.8467 21.5875 18.6204 21.0002 18.6204C20.413 18.6204 19.8808 18.8467 19.4771 19.2076L9.42057 13.3964C9.44504 13.2679 9.46339 13.1334 9.46339 12.9988C9.46339 12.8642 9.44504 12.7296 9.42057 12.6012L19.5321 6.76547C19.9297 7.10191 20.4436 7.30989 21.0064 7.30989L20.9941 7.31601Z" fill="#AED7CD"/>
</svg>
