<svg width="42" height="42" viewBox="0 0 42 42" fill="none" xmlns="http://www.w3.org/2000/svg">
<path d="M18.3261 26.7947L19.3759 25.6181C14.2465 21.0383 11.1323 18.0438 11.1323 15.1128C11.09 13.1682 12.6472 11.5476 14.5847 11.5054H27.1122C28.5707 11.4842 29.8037 12.2874 30.3744 13.5698L31.8117 12.9286C30.9803 11.0685 29.0991 9.88482 27.091 9.9271H22.7508C23.9486 8.86318 24.7659 6.92559 24.7659 5.46007C24.7659 3.33929 23.0468 1.62012 20.926 1.62012C18.8052 1.62012 17.086 3.33929 17.086 5.46007C17.086 6.91855 17.9033 8.85614 19.1011 9.9271H14.5566C11.7312 9.99051 9.49064 12.3297 9.55405 15.1269C9.55405 18.7696 12.8867 21.9331 18.3261 26.7877V26.7947Z" fill="#41515C"/>
<path d="M17.7694 38.0255C16.9662 38.5117 16.022 38.6526 15.099 38.4271C14.176 38.2017 13.401 37.631 12.9148 36.8348L6.65111 25.9843C5.91835 24.7795 5.98176 23.2646 6.80612 22.1232L5.53083 21.2002C4.33305 22.856 4.24145 25.0542 5.29128 26.7875L7.47547 30.5711C5.94653 30.0497 3.85393 30.2963 2.58569 31.0291C0.746735 32.093 0.119659 34.4392 1.18357 36.2782C2.24749 38.1171 4.59374 38.7442 6.43269 37.6873C7.70094 36.9546 8.96918 35.2847 9.29329 33.7065L11.562 37.638C12.2737 38.8076 13.3939 39.6249 14.7256 39.9561C15.1343 40.0547 15.55 40.104 15.9586 40.104C16.8746 40.104 17.7764 39.8574 18.5656 39.3713C21.7221 37.5464 22.793 33.0794 24.2797 25.9491L22.7367 25.6249C21.3346 32.3537 20.3059 36.5459 17.7623 38.0185L17.7694 38.0255Z" fill="#41515C"/>
<path d="M39.6676 30.8109C38.3923 30.0781 36.2997 29.8315 34.7779 30.3529L37.0677 26.3861C38.4205 23.906 37.5187 20.7918 35.0667 19.4531C31.9102 17.6282 27.5066 18.9387 20.5806 21.2145L21.0738 22.7082C27.6052 20.5522 31.7552 19.3544 34.2917 20.8199C35.9968 21.757 36.6238 23.913 35.6938 25.6111L29.4301 36.4616C28.7537 37.6946 27.3939 38.3992 26.0058 38.2583L25.8438 39.8224C26.0199 39.8436 26.1961 39.8506 26.3652 39.8506C28.2041 39.8506 29.9022 38.8571 30.797 37.2366L32.9671 33.4812C33.2912 35.0524 34.5594 36.7293 35.8277 37.4621C37.6666 38.526 40.0129 37.8919 41.0768 36.0529C42.1407 34.214 41.5066 31.8677 39.6676 30.8038V30.8109Z" fill="#41515C"/>
</svg>
