<svg width="52" height="53" viewBox="0 0 52 53" fill="none" xmlns="http://www.w3.org/2000/svg">
<path d="M28.9964 3.92773C16.5756 3.92773 6.47177 14.0316 6.47177 26.4523C6.47177 30.6649 7.65257 34.5903 9.66951 37.9668L0.880511 38.8157C-0.00668654 38.9369 0.0826716 40.2454 0.976252 40.2454H11.2205C11.5843 40.7113 11.9673 41.1645 12.3694 41.5985L5.60372 42.2496C4.71652 42.3708 4.80588 43.6793 5.69946 43.6793H14.5076C15.5671 44.5665 16.7097 45.358 17.916 46.0473L1.67835 47.611C0.791153 47.7323 0.880511 49.0408 1.77409 49.0408H28.99V48.9833C41.4108 48.9833 51.5146 38.8795 51.5146 26.4587C51.5146 14.038 41.4171 3.92773 28.9964 3.92773ZM28.9964 47.0302C17.6479 47.0302 8.4185 37.8008 8.4185 26.4523C8.4185 15.1039 17.6479 5.88085 28.9964 5.88085C40.3449 5.88085 49.5743 15.1103 49.5743 26.4587C49.5743 37.8072 40.3449 47.0366 28.9964 47.0366V47.0302Z" fill="#181E22"/>
<path d="M28.9964 11.1143C20.5393 11.1143 13.6523 17.9948 13.6523 26.4583C13.6523 34.9218 20.5329 41.8024 28.9964 41.8024C37.4599 41.8024 44.3405 34.9218 44.3405 26.4583C44.3405 17.9948 37.4599 11.1143 28.9964 11.1143ZM42.3107 27.888C42.1065 29.7773 41.5065 31.5517 40.5938 33.1219C36.4578 31.3219 34.5174 29.1965 34.7983 28.3412C35.0791 27.4859 37.8939 26.9051 42.3107 27.888ZM34.9387 25.903C34.8557 24.9967 34.5749 24.1478 34.1345 23.4074C36.0238 22.884 38.2194 21.1734 40.1534 19.0544C41.4682 21.0266 42.2597 23.3755 42.3682 25.8902C39.5789 25.3158 36.7833 25.2201 34.9451 25.903H34.9387ZM28.9964 30.4986C26.7688 30.4986 24.9498 28.6859 24.9498 26.4519C24.9498 24.218 26.7624 22.4053 28.9964 22.4053C31.2303 22.4053 33.043 24.218 33.043 26.4519C33.043 28.6859 31.2303 30.4986 28.9964 30.4986ZM23.1945 28.3348C23.469 29.1901 21.535 31.3092 17.399 33.1155C16.4927 31.539 15.8863 29.7709 15.682 27.8817C19.9521 26.9434 22.9073 27.454 23.1945 28.3348ZM15.631 25.8839C15.7395 23.3627 16.5309 21.0202 17.8458 19.048C19.7798 21.167 21.9754 22.8776 23.8647 23.401C23.4243 24.1414 23.1434 24.9839 23.0605 25.8902C21.2222 25.2073 18.4394 25.3094 15.6374 25.8902L15.631 25.8839ZM38.9151 17.4778C36.0174 20.7394 33.3303 22.0542 32.5835 21.5117C31.8239 20.9628 32.2516 18.0076 34.4664 14.2354C36.1706 15.0013 37.6769 16.1119 38.9151 17.4778ZM32.5899 13.5588C31.1729 16.0481 30.2091 18.6522 30.2857 20.599C29.8708 20.5096 29.4368 20.4522 28.9964 20.4522C28.556 20.4522 28.122 20.5096 27.7071 20.599C27.7837 18.6522 26.8199 16.0481 25.4029 13.5588C26.5518 13.2397 27.7518 13.0546 28.9964 13.0546C30.241 13.0546 31.441 13.2397 32.5899 13.5588ZM23.5264 14.2354C25.7412 18.0076 26.1689 20.9628 25.4093 21.5117C24.6625 22.0606 21.9754 20.7394 19.0777 17.4778C20.3159 16.1119 21.8222 15.0013 23.5264 14.2354ZM18.5096 34.7622C21.101 33.5878 23.4179 32.024 24.5093 30.3901C25.0902 31.0475 25.7987 31.5964 26.6156 31.9474C25.4029 33.4921 24.6434 36.1664 24.3242 38.9876C22.0201 38.1259 20.0159 36.6579 18.5096 34.7622ZM26.2391 39.5556C26.6731 35.0558 28.0964 32.5538 28.9964 32.5538C29.8964 32.5538 31.3197 35.0558 31.7537 39.5556C30.8665 39.7407 29.941 39.8429 28.9964 39.8429C28.0518 39.8429 27.1326 39.7407 26.2391 39.5556ZM33.6622 38.9876C33.3494 36.1728 32.5835 33.4921 31.3708 31.9474C32.1878 31.59 32.8962 31.0475 33.4771 30.3901C34.5621 32.024 36.8854 33.5878 39.4768 34.7622C37.9705 36.6579 35.9663 38.1259 33.6622 38.9876Z" fill="#181E22"/>
<path d="M3.54894 42.8682C3.54894 42.4214 3.18513 42.0576 2.73834 42.0576C2.29155 42.0576 1.92773 42.4214 1.92773 42.8682C1.92773 43.315 2.29155 43.6788 2.73834 43.6788C3.18513 43.6788 3.54894 43.315 3.54894 42.8682Z" fill="#181E22"/>
</svg>
