<svg width="52" height="53" viewBox="0 0 52 53" fill="none" xmlns="http://www.w3.org/2000/svg">
<path d="M42.2513 18.3036L41.1285 19.9879C43.1955 22.8886 44.4545 26.3932 44.5736 30.1701C44.6757 33.4451 43.9101 36.6945 42.3619 39.5612C41.9961 40.2417 41.222 40.6755 40.3799 40.6755H11.4409C10.5732 40.6755 9.77364 40.1737 9.34832 39.3741C7.94475 36.6945 7.23021 33.7938 7.23021 30.757C7.23021 20.4557 15.6091 12.0769 25.9104 12.0769C26.1911 12.0769 26.4718 12.0769 26.7525 12.0939C30.4103 12.2555 33.8044 13.489 36.6285 15.4795L38.3043 14.3566C35.0719 11.8897 31.1164 10.3331 26.8376 10.1459C26.5314 10.1289 26.2166 10.1289 25.9104 10.1289C14.5202 10.1289 5.28223 19.3669 5.28223 30.757C5.28223 34.1936 6.13287 37.4346 7.6215 40.2757C8.37007 41.7048 9.82468 42.6235 11.4409 42.6235H40.3884C41.9196 42.6235 43.3657 41.8324 44.0887 40.4799C45.7475 37.4006 46.6406 33.8619 46.5301 30.102C46.394 25.6957 44.8032 21.6126 42.2598 18.2951L42.2513 18.3036Z" fill="#181E22"/>
<path d="M22.6353 33.9729L22.6608 33.9985C23.4604 34.7896 24.5323 35.2319 25.6636 35.2319C26.795 35.2319 27.8838 34.781 28.7685 33.8709L40.7711 15.8457L22.5588 28.0099C20.968 29.6091 21.0021 32.3397 22.6353 33.9814V33.9729Z" fill="#181E22"/>
</svg>
