<svg width="52" height="53" viewBox="0 0 52 53" fill="none" xmlns="http://www.w3.org/2000/svg">
<path d="M44.3582 11.5273H17.4942C13.373 11.5273 10.0223 14.878 10.0223 18.9993V19.6706H9.05911C7.06271 19.6706 5.4399 21.2642 5.37568 23.2489H1.1377V29.746H5.37568C5.4399 31.7249 7.06271 33.3244 9.05911 33.3244H10.0223V33.9957C10.0223 38.1169 13.373 41.4676 17.4942 41.4676H44.3582C47.0434 41.4676 49.2324 39.2786 49.2324 36.5934V16.4016C49.2324 13.7164 47.0434 11.5273 44.3582 11.5273ZM9.05911 31.3747C8.09594 31.3747 7.31372 30.5925 7.31372 29.6351V23.3657C7.31372 22.4025 8.09594 21.6261 9.05911 21.6261H10.0223V31.3805H9.05911V31.3747ZM11.972 33.9957V18.9993C11.972 16.5242 13.6182 14.4461 15.8714 13.7456V39.2436C13.6182 38.5431 11.972 36.4649 11.972 33.9898V33.9957ZM35.5319 39.5179H17.8211V35.2216H32.4439V33.2718H17.8211V27.4753H32.4439V25.5255H17.8211V19.729H32.4439V17.7793H17.8211V13.4829H39.4839V39.5296H35.5319V39.5179ZM47.2827 36.5934C47.2827 38.2045 45.9693 39.5179 44.3582 39.5179H41.4336V13.4771H44.3582C45.9693 13.4771 47.2827 14.7905 47.2827 16.4016V36.5934Z" fill="#181E22"/>
</svg>
