<svg width="52" height="53" viewBox="0 0 52 53" fill="none" xmlns="http://www.w3.org/2000/svg">
<path d="M37.6599 11.9672H28.4215C26.577 7.61879 22.2914 4.5498 17.2994 4.5498C10.6356 4.5498 5.21973 10.0127 5.21973 16.7158C5.21973 19.6749 6.38139 22.3986 7.81776 24.6434V38.026C7.81776 42.1468 11.1693 45.4983 15.2901 45.4983H37.6599C41.7806 45.4983 45.1322 42.1468 45.1322 38.026V19.4395C45.1322 15.3187 41.7806 11.9672 37.6599 11.9672ZM17.2994 6.50422C22.888 6.50422 27.4326 11.0881 27.4326 16.7158C27.4326 20.8209 24.6461 24.5806 22.9821 26.4565C21.8754 27.6888 20.6745 28.8112 19.5913 29.5961C19.0498 29.9886 18.5867 30.2869 18.2256 30.4831C18.0843 30.5537 17.6605 30.7735 17.3465 30.797H17.2523C16.9384 30.7813 16.5145 30.5616 16.3811 30.4909C16.0043 30.2947 15.5491 29.9964 15.0075 29.604C13.9243 28.8112 12.7234 27.6967 11.6167 26.4644C9.95271 24.5884 7.16629 20.8287 7.16629 16.7237C7.16629 11.0959 11.7109 6.51207 17.2994 6.51207V6.50422ZM9.76433 38.0339V27.2885C9.89776 27.4455 10.0312 27.6103 10.1568 27.7595C11.3498 29.0938 12.6606 30.3104 13.8537 31.1817C14.4659 31.629 15.0075 31.9744 15.4706 32.2177C15.918 32.4532 16.5067 32.7122 17.1581 32.7515H17.2916H17.3073H35.2188C36.6552 32.7515 37.8247 33.921 37.8247 35.3573C37.8247 36.7937 36.6552 37.9632 35.2188 37.9632H29.5204C26.2238 37.9632 23.5159 40.4043 23.0449 43.5675H15.2901C12.2446 43.5675 9.76433 41.0872 9.76433 38.0417V38.0339ZM43.1856 38.0339C43.1856 41.0793 40.7053 43.5596 37.6599 43.5596H24.9993C25.4467 41.4718 27.2991 39.9098 29.5204 39.9098H35.2188C37.7305 39.9098 39.7713 37.869 39.7713 35.3573C39.7713 32.8457 37.7305 30.8049 35.2188 30.8049H21.224C22.2836 29.9729 23.406 28.9211 24.4421 27.7595C26.6947 25.2164 29.387 21.2369 29.387 16.7237C29.387 15.7583 29.2614 14.8242 29.0495 13.9294H37.6677C40.7132 13.9294 43.1935 16.4097 43.1935 19.4552V38.0417L43.1856 38.0339Z" fill="#181E22"/>
<path d="M17.292 19.9258C19.1444 19.9258 20.6514 18.4188 20.6514 16.5664C20.6514 14.714 19.1444 13.207 17.292 13.207C15.4396 13.207 13.9326 14.714 13.9326 16.5664C13.9326 18.4188 15.4396 19.9258 17.292 19.9258Z" fill="#181E22"/>
</svg>
