<svg width="42" height="42" viewBox="0 0 42 42" fill="none" xmlns="http://www.w3.org/2000/svg">
<path d="M36.7289 16.2436H26.2709C20.0654 16.2436 15.0254 21.2941 15.0254 27.4891C15.0254 30.3031 16.0754 32.8756 17.7974 34.8601L15.8864 36.7711L16.9994 37.8841L18.9104 35.9731C20.8844 37.6951 23.4569 38.7451 26.2814 38.7451C32.4869 38.7451 37.5269 33.6946 37.5269 27.4996V17.0416C37.5269 16.6111 37.1699 16.2541 36.7394 16.2541L36.7289 16.2436ZM35.9414 27.4891C35.9414 32.8231 31.6049 37.1596 26.2709 37.1596C23.8874 37.1596 21.7034 36.2881 20.0129 34.8496L28.3079 26.5546L27.1949 25.4416L18.8999 33.7366C17.4614 32.0461 16.5899 29.8621 16.5899 27.4786C16.5899 22.1446 20.9264 17.8081 26.2604 17.8081H35.9309V27.4786L35.9414 27.4891Z" fill="#AED7CD"/>
<path d="M11.0354 10.1746H5.2709C4.8404 10.1746 4.4834 10.5316 4.4834 10.9621V16.7266C4.4834 18.9001 6.2474 20.6641 8.4209 20.6641H14.1854C14.6159 20.6641 14.9729 20.3071 14.9729 19.8766V14.1121C14.9729 11.9386 13.2089 10.1746 11.0354 10.1746ZM13.3979 19.0891H8.4209C7.1189 19.0891 6.0584 18.0286 6.0584 16.7266V11.7496H11.0354C12.3374 11.7496 13.3979 12.8101 13.3979 14.1121V19.0891Z" fill="#AED7CD"/>
<path d="M19.3725 11.7496H23.1315C25.305 11.7496 27.069 9.98563 27.069 7.81213V4.05313C27.069 3.62263 26.712 3.26562 26.2815 3.26562H22.5225C20.349 3.26562 18.585 5.02963 18.585 7.20313V10.9621C18.585 11.3926 18.942 11.7496 19.3725 11.7496ZM20.16 7.20313C20.16 5.90113 21.2205 4.84063 22.5225 4.84063H25.494V7.81213C25.494 9.11413 24.4335 10.1746 23.1315 10.1746H20.16V7.20313Z" fill="#AED7CD"/>
</svg>
