<svg width="42" height="42" viewBox="0 0 42 42" fill="none" xmlns="http://www.w3.org/2000/svg">
<path d="M36.2244 38.3967L31.8393 30.1266C31.7014 29.868 31.437 29.707 31.1439 29.707H10.8566C10.5635 29.707 10.2991 29.868 10.1612 30.1266L5.77612 38.3967C5.64968 38.6381 5.65543 38.9369 5.79911 39.1726C5.94279 39.4082 6.19566 39.5519 6.47152 39.5519H35.529C35.8049 39.5519 36.0635 39.4082 36.2014 39.1726C36.3393 38.9369 36.3508 38.6438 36.2244 38.3967ZM7.78187 37.9771L11.3278 31.2817H30.6669L34.2129 37.9771H7.78187Z" fill="#41515C"/>
<path d="M11.8335 16.9312H15.322V22.253C15.322 22.6898 15.6726 23.0404 16.1094 23.0404H19.4197V28.4944H22.5691V23.0404H25.8795C26.3163 23.0404 26.6669 22.6898 26.6669 22.253V16.9312H30.1554C30.5921 16.9312 30.9427 16.5806 30.9427 16.1438V3.91968C30.9427 3.4829 30.5921 3.13232 30.1554 3.13232H11.822C11.3852 3.13232 11.0347 3.4829 11.0347 3.91968V16.1381C11.0347 16.5749 11.3852 16.9254 11.822 16.9254L11.8335 16.9312ZM25.0979 21.4657H16.8967V16.9312H25.0979V21.4657ZM12.6209 4.70704H29.3795V15.3507H12.6209V4.70704Z" fill="#41515C"/>
<path d="M30.7188 21.6094L24.9487 28.4944L31.8338 22.7186L30.7188 21.6094Z" fill="#41515C"/>
<path d="M17.052 28.4944L11.2819 21.6094L10.167 22.7186L17.052 28.4944Z" fill="#41515C"/>
</svg>
