<svg width="42" height="42" viewBox="0 0 42 42" fill="none" xmlns="http://www.w3.org/2000/svg">
<path d="M19.0152 39.287H16.9833C16.7543 39.287 16.537 39.1871 16.3902 39.0168C16.2434 38.8465 16.1729 38.6116 16.2081 38.3885L18.0638 25.6334H10.4002C10.1184 25.6334 9.85409 25.4808 9.71903 25.2341C9.57809 24.9875 9.58396 24.688 9.7249 24.4413L22.3566 3.10072C22.4975 2.85995 22.7559 2.71313 23.0319 2.71313H25.0168C25.2459 2.71313 25.4632 2.81297 25.61 2.98327C25.7568 3.15357 25.8272 3.38847 25.792 3.61162L23.9363 16.3667H31.5999C31.8818 16.3667 32.146 16.5193 32.2811 16.766C32.422 17.0126 32.422 17.3121 32.2752 17.5588L19.6788 38.9053C19.5378 39.146 19.2794 39.2928 19.0034 39.2928L19.0152 39.287ZM17.8935 37.7131H18.5689L30.2375 17.9405H23.0437C22.8147 17.9405 22.5974 17.8407 22.4506 17.6704C22.3038 17.5 22.2333 17.2652 22.2685 17.042L24.1242 4.28696H23.4959L11.7861 24.0596H18.9799C19.209 24.0596 19.4262 24.1594 19.5731 24.3297C19.7199 24.5001 19.7903 24.7349 19.7551 24.9581L17.8994 37.7131H17.8935Z" fill="#AED7CD"/>
</svg>
