<svg width="42" height="42" viewBox="0 0 42 42" fill="none" xmlns="http://www.w3.org/2000/svg">
<path d="M35.6411 20.9494C35.8916 20.6286 36.1377 20.3121 36.3619 19.9913C38.8229 16.4712 39.4382 13.2499 38.0934 10.9207C36.5904 8.31908 32.9516 7.37422 28.3723 7.98508C26.6101 3.77938 23.9952 1.14697 21.02 1.14697C18.0448 1.14697 15.3553 3.8453 13.593 8.15208C8.92586 7.48849 5.21674 8.43334 3.69179 11.0658C2.34701 13.3949 2.96227 16.6162 5.42329 20.1364C5.61226 20.4088 5.8276 20.6769 6.03855 20.9494C5.85397 21.1867 5.665 21.4284 5.498 21.6657C3.03698 25.1858 2.42172 28.4071 3.7665 30.7363C4.97503 32.8326 7.5679 33.8565 10.9254 33.8565C11.7516 33.8565 12.6306 33.7774 13.5403 33.6544C15.2981 38.0315 17.9745 40.7825 21.02 40.7825C24.0655 40.7825 26.6716 38.0974 28.4295 33.8126C28.7195 33.8477 29.014 33.8961 29.2996 33.918C29.8533 33.9664 30.3895 33.9884 30.9037 33.9884C34.3535 33.9884 36.8497 32.9073 38.0231 30.8813C39.3678 28.5522 38.7526 25.3265 36.2916 21.8107C36.0894 21.5207 35.8609 21.235 35.6411 20.9494ZM31.0135 9.38259C33.747 9.38259 35.8257 10.1385 36.731 11.7074C37.7374 13.4521 37.1353 16.1416 35.0742 19.0904C34.9292 19.297 34.7622 19.5035 34.6084 19.7101C33.3911 18.3389 31.9628 16.9986 30.3543 15.7417C30.0643 13.4784 29.5897 11.3822 28.9612 9.53201C29.6732 9.44851 30.3719 9.39138 31.0179 9.39138L31.0135 9.38259ZM24.9796 27.8358C23.5602 28.6532 22.1319 29.352 20.7168 29.9497C19.4116 29.3784 18.1064 28.7279 16.8143 27.9808C15.5442 27.2469 14.3489 26.4559 13.2195 25.6297C13.0349 24.1311 12.9294 22.571 12.9294 20.9626C12.9294 19.3541 13.0393 17.7369 13.2283 16.2163C14.3753 15.3725 15.5926 14.5639 16.8846 13.8168C18.1591 13.0829 19.4423 12.4369 20.7168 11.8788C22.1055 12.4677 23.5118 13.1576 24.9093 13.9618C26.3156 14.7749 27.634 15.6582 28.8601 16.5811C29.0227 17.9918 29.115 19.4552 29.115 20.9582C29.115 22.4611 29.0227 23.8718 28.8689 25.2605C27.656 26.1702 26.3596 27.036 24.9796 27.8314V27.8358ZM28.5613 27.4227C28.2713 29.0927 27.8713 30.6528 27.3835 32.0547C25.8893 31.7778 24.3336 31.3472 22.7471 30.7671C23.7491 30.2924 24.7555 29.7827 25.7619 29.1982C26.7331 28.6357 27.6604 28.0424 28.5569 27.4227H28.5613ZM18.6821 30.7407C17.267 31.2373 15.9002 31.6065 14.595 31.8613C14.1731 30.6089 13.8127 29.2421 13.5403 27.7787C14.3401 28.3192 15.1619 28.8466 16.0233 29.3432C16.9022 29.853 17.7899 30.31 18.6821 30.7407ZM11.4924 24.2805C10.2003 23.2038 9.04891 22.0832 8.0645 20.9362C9.04891 19.7804 10.2003 18.651 11.4967 17.5655C11.4089 18.6685 11.3517 19.7936 11.3517 20.9582C11.3517 22.1227 11.4089 23.1994 11.4924 24.2805ZM13.5535 14.0541C13.8303 12.5819 14.1951 11.2108 14.6258 9.95829C15.9178 10.2176 17.2802 10.5955 18.6777 11.0877C17.8163 11.5096 16.9549 11.9535 16.0936 12.4501C15.2146 12.9599 14.3709 13.496 13.5535 14.0541ZM22.7515 11.0614C24.3468 10.4769 25.8937 10.0506 27.3528 9.76932C27.845 11.1712 28.2493 12.7357 28.5437 14.4101C27.6296 13.7773 26.6848 13.1664 25.6916 12.5951C24.7072 12.0282 23.7272 11.5228 22.7515 11.0614ZM30.5697 17.9478C31.6991 18.9146 32.7099 19.9166 33.5932 20.9406C32.7055 21.9514 31.6991 22.9489 30.5741 23.907C30.64 22.9446 30.6883 21.9689 30.6883 20.9626C30.6883 19.9562 30.64 18.9322 30.5697 17.9522V17.9478ZM21.0244 2.72027C23.2437 2.72027 25.2873 4.86487 26.7639 8.25755C24.8522 8.64429 22.8131 9.2903 20.7212 10.1648C18.8183 9.38698 16.9593 8.80249 15.2059 8.43334C16.6913 4.93958 18.7612 2.72027 21.02 2.72027H21.0244ZM6.71972 19.2354C4.65862 16.291 4.05215 13.6015 5.06293 11.8524C5.96823 10.2835 8.04692 9.52761 10.7804 9.52761C11.4836 9.52761 12.2438 9.59353 13.0261 9.69461C12.4592 11.3997 12.0241 13.3114 11.7385 15.3637C9.95421 16.7305 8.38092 18.1895 7.0669 19.6925C6.95264 19.5387 6.8252 19.3849 6.71972 19.2311V19.2354ZM5.13324 29.9497C4.12686 28.205 4.72893 25.5154 6.79004 22.5666C6.87793 22.4436 6.97901 22.3161 7.0713 22.1931C8.38531 23.6829 9.95421 25.1287 11.7297 26.4823C12.0065 28.5214 12.4328 30.4243 12.9865 32.125C9.2203 32.5865 6.25828 31.9009 5.13324 29.9497ZM21.0244 39.2092C18.7436 39.2092 16.6517 36.9372 15.1663 33.3775C16.9286 33.0171 18.7963 32.4414 20.7212 31.6636C22.7999 32.5293 24.8566 33.1622 26.8166 33.5489C25.3312 37.0119 23.2701 39.2048 21.0244 39.2048V39.2092ZM36.6607 30.0991C35.6543 31.8438 33.0219 32.6612 29.4402 32.3535C29.2952 32.3404 29.1458 32.314 28.9964 32.3008C29.616 30.455 30.0775 28.3676 30.3631 26.1175C31.9628 24.8738 33.3911 23.5466 34.604 22.1887C34.7358 22.3645 34.8809 22.5402 35.0039 22.716C37.065 25.6605 37.6671 28.3544 36.6607 30.0991Z" fill="#41515C"/>
<path d="M21.0026 24.153C22.7428 24.153 24.1535 22.7423 24.1535 21.0021C24.1535 19.2618 22.7428 17.8511 21.0026 17.8511C19.2623 17.8511 17.8516 19.2618 17.8516 21.0021C17.8516 22.7423 19.2623 24.153 21.0026 24.153Z" fill="#41515C"/>
</svg>
