<svg width="42" height="42" viewBox="0 0 42 42" fill="none" xmlns="http://www.w3.org/2000/svg">
<path d="M25.5789 14.7054V13.9117L30.8962 17.1464L35.8336 12.9515L34.8136 11.7523L30.7425 15.209L25.5789 12.0681V8.46642L30.7425 5.32559L34.8136 8.78221L35.8336 7.58306L30.8962 3.38818L25.5789 6.62289V5.82915H23.4794V9.26443H17.3641C16.9801 6.63996 14.7354 4.61293 12.0043 4.61293C9.00426 4.61293 6.56329 7.0539 6.56329 10.0539C6.56329 12.7082 8.4751 14.9145 10.9929 15.3925L14.0313 31.694H7.82645L5.16357 38.0866H34.7283L32.0697 31.694H22.0498L15.5932 14.108C16.532 13.2758 17.1721 12.1364 17.3641 10.8391H23.4794V14.7054H25.5789ZM32.3684 36.5119H7.52346L8.87197 33.2687H31.0156L32.3641 36.5119H32.3684ZM20.3727 31.694H15.6316L12.6017 15.4309C13.1778 15.3668 13.7326 15.226 14.2404 14.9956L20.3727 31.6897V31.694ZM12.0043 13.9159C9.87481 13.9159 8.13797 12.1833 8.13797 10.0496C8.13797 7.91592 9.87054 6.18335 12.0043 6.18335C14.138 6.18335 15.8705 7.91592 15.8705 10.0496C15.8705 12.1833 14.138 13.9159 12.0043 13.9159Z" fill="#41515C"/>
</svg>
