<svg width="42" height="42" viewBox="0 0 42 42" fill="none" xmlns="http://www.w3.org/2000/svg">
<path d="M21.9652 18.3794H21.4862L18.457 23.5008H20.5141L20.035 26.7766H20.5211L23.5432 21.6551H21.4862L21.9652 18.3794Z" fill="#AED7CD"/>
<path d="M25.7269 8.66488H24.1489V6.30493H17.851V8.66488H16.273C14.9698 8.66488 13.9131 9.72157 13.9131 11.0248V34.1241C13.9131 35.4274 14.9768 36.4841 16.273 36.4841H25.7199C27.0231 36.4841 28.0798 35.4274 28.0798 34.1241V11.0248C28.0798 9.72157 27.0161 8.66488 25.7199 8.66488H25.7269ZM26.5159 34.1241C26.5159 34.5609 26.1637 34.9131 25.7269 34.9131H16.2801C15.8433 34.9131 15.4911 34.5609 15.4911 34.1241V11.0248C15.4911 10.5881 15.8433 10.2358 16.2801 10.2358H25.7269C26.1637 10.2358 26.5159 10.5881 26.5159 11.0248V34.1241Z" fill="#AED7CD"/>
<path d="M10.6727 11.208H6.47414V13.5679H4.81161C3.50835 13.5679 2.45166 14.6246 2.45166 15.9279V34.1241C2.45166 35.4274 3.5154 36.4841 4.81161 36.4841H12.3353V34.9061H4.81161C4.37484 34.9061 4.02261 34.5539 4.02261 34.1171V15.9208C4.02261 15.4841 4.37484 15.1318 4.81161 15.1318H12.3353V13.5539H10.6727V11.1939V11.208Z" fill="#AED7CD"/>
<path d="M37.1887 13.568H35.5262V11.208H31.3276V13.568H29.665V15.1459H37.1887C37.6255 15.1459 37.9777 15.4982 37.9777 15.9349V34.1312C37.9777 34.568 37.6255 34.9202 37.1887 34.9202H29.665V36.4982H37.1887C38.4919 36.4982 39.5486 35.4415 39.5486 34.1382V15.942C39.5486 14.6387 38.4849 13.582 37.1887 13.582V13.568Z" fill="#AED7CD"/>
</svg>
