<svg width="61" height="60" viewBox="0 0 61 60" fill="none" xmlns="http://www.w3.org/2000/svg">
<path d="M30.2654 6.375C17.2304 6.375 6.64038 16.98 6.64038 30C6.64038 43.02 17.2454 53.625 30.2654 53.625C43.2854 53.625 53.8904 43.02 53.8904 30C53.8904 16.98 43.2854 6.375 30.2654 6.375ZM30.2654 51.39C18.4754 51.39 8.89038 41.805 8.89038 30.015C8.89038 18.225 18.4754 8.64 30.2654 8.64C42.0554 8.64 51.6404 18.225 51.6404 30.015C51.6404 41.805 42.0554 51.39 30.2654 51.39Z" fill="#CBF6B6"/>
<path d="M40.9603 25.7398C40.9603 20.3248 37.4953 17.3848 30.8803 17.3848H21.9553V42.5998H24.7603V34.0048H31.2553L38.4853 42.5998H41.5903V42.3448L34.2253 33.7048C38.2753 32.7898 40.9603 29.8198 40.9603 25.7248V25.7398ZM31.2103 31.3648H24.7603V20.0398H30.9253C35.6353 20.0848 38.1103 22.0648 38.1103 25.7398C38.1103 29.4148 35.3353 31.3648 31.2103 31.3648Z" fill="#CBF6B6"/>
</svg>
