<svg width="61" height="61" viewBox="0 0 61 61" fill="none" xmlns="http://www.w3.org/2000/svg">
<path d="M48.6374 19.1543C47.8981 18.3588 47.1962 17.6101 46.8967 16.8988C46.5785 16.1314 46.541 15.0738 46.4943 13.9414C46.4287 12.182 46.3539 10.1885 45.0436 8.87831C43.7334 7.56808 41.7399 7.49321 39.9805 7.4277C38.8574 7.3809 37.7905 7.34347 37.023 7.02527C36.3118 6.72578 35.563 6.03323 34.7675 5.28453C33.4573 4.05852 31.9692 2.66406 30.0413 2.66406C28.1133 2.66406 26.6253 4.05852 25.315 5.28453C24.5195 6.02387 23.7708 6.72578 23.0595 7.02527C22.2921 7.34347 21.2345 7.3809 20.1021 7.4277C18.3426 7.49321 16.3492 7.56808 15.0483 8.87831C13.7381 10.1792 13.6632 12.1726 13.5977 13.9321C13.5509 15.0551 13.5134 16.122 13.1952 16.8894C12.9051 17.6007 12.2032 18.3494 11.4545 19.1449C10.2285 20.4552 8.83398 21.9432 8.83398 23.8711C8.83398 25.799 10.2285 27.2871 11.4545 28.5973C12.1938 29.3928 12.8958 30.1415 13.1952 30.8528C13.5134 31.6202 13.5509 32.6778 13.5977 33.8102C13.6632 35.5696 13.7381 37.5631 15.0483 38.8639C15.9655 39.7811 17.2102 40.0899 18.483 40.2116V56.29C18.483 56.7112 18.717 57.0949 19.0914 57.2914C19.4657 57.488 19.9149 57.4505 20.2612 57.2072L30.0319 50.1787L39.8026 57.2072C39.9992 57.3476 40.2238 57.4224 40.4578 57.4224C40.6356 57.4224 40.8134 57.385 40.9725 57.3008C41.3469 57.1042 41.5808 56.7205 41.5808 56.2994V40.221C42.8536 40.0899 44.1077 39.7811 45.0155 38.8733C46.3258 37.5631 46.4007 35.5696 46.4662 33.8102C46.513 32.6871 46.5504 31.6202 46.8686 30.8528C47.1681 30.1415 47.87 29.3928 48.6094 28.5973C49.8354 27.2871 51.2299 25.799 51.2299 23.8711C51.2299 21.9432 49.8354 20.4552 48.6094 19.1449L48.6374 19.1543ZM30.7151 47.8858C30.3221 47.6051 29.798 47.6051 29.4049 47.8858L20.7572 54.1094V40.3613C21.6463 40.4081 22.4606 40.483 23.0876 40.7357C23.7989 41.0258 24.5476 41.7277 25.3431 42.4764C26.6534 43.7024 28.1414 45.0969 30.0694 45.0969C31.9973 45.0969 33.4854 43.7024 34.7956 42.4764C35.5911 41.7371 36.3398 41.0352 37.0511 40.7357C37.6688 40.483 38.4924 40.4081 39.3815 40.3613V54.1094L30.7338 47.8952L30.7151 47.8858ZM46.9996 27.0718C46.148 27.9796 45.2776 28.9155 44.8284 30.0011C44.3604 31.1336 44.3043 32.4531 44.2575 33.7259C44.2013 35.2046 44.1452 36.5991 43.462 37.2823C42.7788 37.9655 41.3843 38.0216 39.9056 38.0778C38.6328 38.1246 37.3132 38.1807 36.1807 38.6487C35.0951 39.0979 34.1592 39.9776 33.2514 40.8199C32.147 41.8494 31.1082 42.8321 30.0694 42.8321C29.0305 42.8321 27.9823 41.8587 26.878 40.8199C25.9702 39.9683 25.0343 39.0979 23.9486 38.6487C22.8162 38.1807 21.4966 38.1246 20.2238 38.0778C18.7451 38.0216 17.3506 37.9655 16.6674 37.2823C15.9842 36.5991 15.928 35.2046 15.8719 33.7259C15.8251 32.4531 15.7689 31.1336 15.301 29.9918C14.8518 28.9062 13.972 27.9703 13.1297 27.0625C12.1002 25.9581 11.1176 24.9193 11.1176 23.8805C11.1176 22.8417 12.0909 21.7935 13.1297 20.6891C13.972 19.7813 14.8518 18.8454 15.301 17.7598C15.7783 16.618 15.8251 15.3078 15.8719 14.0257C15.928 12.547 15.9842 11.1525 16.6674 10.4693C17.3506 9.78611 18.7451 9.72996 20.2238 9.67381C21.4966 9.62701 22.8162 9.57086 23.958 9.10292C25.0436 8.6537 25.9795 7.77397 26.8873 6.93168C27.9917 5.90221 29.0305 4.91953 30.0787 4.91953C31.1269 4.91953 32.1658 5.89285 33.2607 6.93168C34.1686 7.77397 35.1045 8.6537 36.1901 9.10292C37.3319 9.58022 38.6515 9.62701 39.9243 9.67381C41.403 9.72996 42.7975 9.78611 43.4807 10.4693C44.1639 11.1525 44.22 12.547 44.2762 14.0257C44.323 15.2985 44.3791 16.618 44.8471 17.7505C45.2963 18.8361 46.1761 19.772 47.0184 20.6798C48.0478 21.7841 49.0305 22.8229 49.0305 23.8711C49.0305 24.9193 48.0572 25.9488 47.0184 27.0531L46.9996 27.0718Z" fill="#CBF6B6"/>
<path d="M30.0507 13.5859C24.3698 13.5859 19.7559 18.1998 19.7559 23.8806C19.7559 29.5614 24.3698 34.1753 30.0507 34.1753C35.7315 34.1753 40.3455 29.5614 40.3455 23.8806C40.3455 18.1998 35.7315 13.5859 30.0507 13.5859ZM30.0507 31.9292C25.6145 31.9292 22.002 28.3167 22.002 23.8806C22.002 19.4446 25.6145 15.8321 30.0507 15.8321C34.4868 15.8321 38.0993 19.4446 38.0993 23.8806C38.0993 28.3167 34.4868 31.9292 30.0507 31.9292Z" fill="#CBF6B6"/>
</svg>
