<svg width="60" height="60" viewBox="0 0 60 60" fill="none" xmlns="http://www.w3.org/2000/svg">
<path d="M54.2248 37.53C52.1998 36.54 50.0848 35.85 47.9098 35.415C51.1798 32.61 53.2498 27.675 53.2498 23.955C53.2498 18.225 48.4498 13.56 42.5398 13.56C41.3248 13.56 40.1548 13.77 39.0598 14.13C36.8548 11.685 33.6148 10.125 30.0148 10.125C26.4148 10.125 23.1748 11.685 20.9698 14.13C19.8748 13.77 18.7198 13.545 17.4898 13.545C11.5798 13.545 6.77982 18.21 6.77982 23.94C6.77982 27.66 8.84982 32.61 12.1348 35.4C9.95982 35.835 7.82982 36.525 5.80482 37.515C1.94982 39.39 0.929824 43.245 1.61982 46.245C2.29482 49.2 4.87482 52.17 9.10482 52.17H12.1798C13.4548 53.145 15.0448 53.715 16.7848 53.715H43.2748C45.0148 53.715 46.6048 53.145 47.8798 52.17H50.9548C55.1848 52.17 57.7648 49.185 58.4398 46.245C59.1298 43.26 58.1098 39.39 54.2548 37.515L54.2248 37.53ZM36.2248 34.5C36.4348 34.71 36.6298 34.935 36.8548 35.13C36.4948 35.055 36.1498 34.965 35.7898 34.89C35.9398 34.77 36.0898 34.635 36.2398 34.5H36.2248ZM42.5248 15.81C47.1898 15.81 50.9848 19.455 50.9848 23.955C50.9848 28.455 47.1898 35.34 42.5248 35.34C40.7698 35.34 39.1348 34.35 37.7848 32.88C40.4248 29.67 42.0148 25.26 42.0148 21.78C42.0148 19.71 41.4448 17.76 40.4698 16.08C41.1298 15.915 41.8198 15.81 42.5248 15.81ZM29.9998 12.39C35.3848 12.39 39.7648 16.605 39.7648 21.795C39.7648 26.985 35.3848 34.89 29.9998 34.89C24.6148 34.89 20.2348 26.97 20.2348 21.795C20.2348 16.62 24.6148 12.39 29.9998 12.39ZM23.7748 34.5C23.9248 34.635 24.0748 34.77 24.2248 34.89C23.8498 34.965 23.4898 35.055 23.1298 35.13C23.3548 34.92 23.5648 34.71 23.7748 34.485V34.5ZM9.01482 23.955C9.01482 19.47 12.8098 15.81 17.4748 15.81C18.1948 15.81 18.8698 15.93 19.5298 16.08C18.5548 17.76 17.9848 19.71 17.9848 21.78C17.9848 25.245 19.5748 29.67 22.2148 32.865C20.8648 34.335 19.2448 35.325 17.4748 35.325C12.8098 35.325 9.01482 28.44 9.01482 23.94V23.955ZM3.77982 45.75C3.32982 43.785 3.83982 40.98 6.76482 39.555C9.46482 38.235 12.3298 37.5 15.2998 37.245C15.6898 37.365 16.0948 37.455 16.5148 37.515C15.0898 38.22 13.7098 39.03 12.4048 39.975C9.65982 41.955 8.53482 45.3 9.56982 48.51C9.73482 49.02 9.95982 49.485 10.2148 49.935H9.07482C5.87982 49.935 4.22982 47.685 3.77982 45.75ZM16.7548 51.48C13.9048 51.48 12.2848 49.59 11.7148 47.82C11.1598 46.095 11.3548 43.5 13.7098 41.805C17.7898 38.88 22.4998 37.17 27.4498 36.72C28.2598 36.99 29.1148 37.14 29.9998 37.14C30.8848 37.14 31.7248 36.99 32.5498 36.72C37.4998 37.17 42.2248 38.88 46.2898 41.805C48.6448 43.5 48.8398 46.11 48.2848 47.82C47.7148 49.59 46.0948 51.48 43.2448 51.48H16.7548ZM56.2198 45.75C55.7698 47.685 54.1198 49.935 50.9248 49.935H49.7848C50.0398 49.485 50.2648 49.02 50.4298 48.51C51.4648 45.3 50.3548 41.955 47.5948 39.975C46.2898 39.03 44.9098 38.22 43.4848 37.515C43.8898 37.455 44.2948 37.38 44.6848 37.245C47.6548 37.5 50.5348 38.235 53.2198 39.555C56.1448 40.98 56.6548 43.785 56.2048 45.75H56.2198Z" fill="#CBF6B6"/>
</svg>
